<svg xmlns="http://www.w3.org/2000/svg" viewBox="0 0 32 32">
  <defs>
    <linearGradient id="python-blue" x1="0%" y1="0%" x2="0%" y2="100%">
      <stop offset="0%" style="stop-color:#387eb8;stop-opacity:1" />
      <stop offset="100%" style="stop-color:#366994;stop-opacity:1" />
    </linearGradient>
    <linearGradient id="python-yellow" x1="0%" y1="0%" x2="0%" y2="100%">
      <stop offset="0%" style="stop-color:#ffe873;stop-opacity:1" />
      <stop offset="100%" style="stop-color:#ffd43b;stop-opacity:1" />
    </linearGradient>
  </defs>
  <!-- Top snake (blue) -->
  <path fill="url(#python-blue)" d="M15.9,2c-1.7,0-3.3,0.1-4.6,0.3c-3.6,0.5-4.2,1.6-4.2,3.6v2.6h8.4v1.1H6.8c-2.5,0-4.6,1.5-5.3,4.3c-0.8,3.2-0.8,5.2,0,8.6c0.6,2.5,2,4.3,4.4,4.3h2.9v-3.8c0-2.8,2.4-5.3,5.3-5.3h8.4c2.3,0,4.2-1.9,4.2-4.3V5.9c0-2.2-1.9-3.9-4.2-4.3C20.9,1.4,18.8,2,15.9,2z M11.5,4.1c0.9,0,1.6,0.7,1.6,1.6c0,0.9-0.7,1.6-1.6,1.6c-0.9,0-1.6-0.7-1.6-1.6C9.9,4.8,10.6,4.1,11.5,4.1z"/>
  <!-- Bottom snake (yellow) -->
  <path fill="url(#python-yellow)" d="M16.1,30c1.7,0,3.3-0.1,4.6-0.3c3.6-0.5,4.2-1.6,4.2-3.6v-2.6h-8.4v-1.1h9.7c2.5,0,3.4-1.7,4.2-4.3c0.9-2.7,0.8-5.3,0-8.6c-0.6-2.4-1.7-4.3-4.2-4.3h-3.1v4c0,2.9-2.5,5.4-5.3,5.4h-8.4c-2.3,0-4.2,2-4.2,4.3v7.9c0,2.2,1.9,3.5,4.2,4.3C11.9,31.5,13.4,30,16.1,30z M20.5,27.9c-0.9,0-1.6-0.7-1.6-1.6c0-0.9,0.7-1.6,1.6-1.6c0.9,0,1.6,0.7,1.6,1.6C22.1,27.2,21.4,27.9,20.5,27.9z"/>
</svg>
